<svg xmlns="http://www.w3.org/2000/svg" xmlns:xlink="http://www.w3.org/1999/xlink" width="500" height="500" viewBox="0 0 500 500">
  <defs>
    <clipPath id="clip-Play_Button">
      <rect width="500" height="500"/>
    </clipPath>
  </defs>
  <g id="Play_Button" data-name="Play Button" clip-path="url(#clip-Play_Button)">
    <path id="Path_8" data-name="Path 8" d="M235.9,471.8A235.962,235.962,0,0,1,144.077,18.538,235.961,235.961,0,0,1,327.723,453.261,234.422,234.422,0,0,1,235.9,471.8ZM206.224,150.533a19.307,19.307,0,0,0-19.284,19.286v135.13a19.307,19.307,0,0,0,19.287,19.284,18.99,18.99,0,0,0,9.584-2.6l117.244-67.567a19.255,19.255,0,0,0,0-33.369L215.811,153.135A18.981,18.981,0,0,0,206.224,150.533Z" transform="translate(14 14)" fill="#fff"/>
  </g>
</svg>
