<svg xmlns="http://www.w3.org/2000/svg" xmlns:xlink="http://www.w3.org/1999/xlink" width="500" height="500" viewBox="0 0 500 500">
  <defs>
    <clipPath id="clip-Favicon_1">
      <rect width="500" height="500"/>
    </clipPath>
  </defs>
  <g id="Favicon_1" data-name="Favicon – 1" clip-path="url(#clip-Favicon_1)">
    <rect id="Rectangle_67" data-name="Rectangle 67" width="500" height="500" rx="250" fill="#fff"/>
    <g id="Logo" transform="translate(111 203)">
      <path id="Dot" d="M12.719,0A12.764,12.764,0,1,1,0,12.764,12.742,12.742,0,0,1,12.719,0Z" transform="translate(251.65 67.576)" fill="#177feb"/>
      <path id="Text" d="M87.585,27.783a50.614,50.614,0,0,1-5.816,24.59A40.148,40.148,0,0,1,65.149,68.862q-10.805,5.8-24.915,5.8H1.652V-16.8H39.407Q87.585-16.8,87.585,27.783Zm-29.174.255a26.4,26.4,0,0,0-2.7-12.056A19.584,19.584,0,0,0,47.987,7.69,23.013,23.013,0,0,0,36.165,4.756H29.11V53.107H36.8q9.852,0,15.731-6.793T58.411,28.038Zm42.013,46.629V-16.8h56.759V4.756h-29.3V18.087H155.4v21.56H127.882V53.107h31.4v21.56Zm123.751,0H193.349L163.92-16.8h29.555L207.4,39.52a63.172,63.172,0,0,1,1.843,10.206h.636a70.611,70.611,0,0,1,1.97-10.589L225.383-16.8h28.6Z" transform="translate(-1.652 16.805)" fill="#010427"/>
    </g>
  </g>
</svg>
